<svg width="398.1" height="103.607" viewBox="0 0 398.1 103.607" xmlns="http://www.w3.org/2000/svg"><g id="svgGroup" stroke-linecap="round" fill-rule="evenodd" font-size="9pt" stroke="#000" stroke-width="0.25mm" fill="#000" style="stroke:#000;stroke-width:0.25mm;fill:#000"><path d="M 189.4 27.507 L 190 27.007 L 189.6 16.107 Q 189.4 13.307 188.4 11.307 Q 187.631 9.77 186.981 9.06 A 2.819 2.819 0 0 0 186.6 8.707 L 185.7 8.207 Q 185.1 7.807 185.1 7.307 Q 185.1 6.023 188.511 4.371 A 30.546 30.546 0 0 1 189.75 3.807 Q 193.564 2.167 195.999 1.872 A 8.35 8.35 0 0 1 197 1.807 A 9.38 9.38 0 0 1 197.891 1.846 Q 199.638 2.014 199.8 2.907 Q 200.21 5.697 200.284 12.628 A 304.884 304.884 0 0 1 200.3 15.857 Q 200.3 25.407 199.85 34.607 Q 199.43 43.196 199.402 53.921 A 590.659 590.659 0 0 0 199.4 55.457 Q 199.4 64.996 200.406 68.736 A 7.41 7.41 0 0 0 200.9 70.107 Q 201.222 70.67 201.285 71.168 A 1.903 1.903 0 0 1 201.3 71.407 A 1.02 1.02 0 0 1 200.745 72.292 Q 199.908 72.812 197.811 72.892 A 21.163 21.163 0 0 1 197 72.907 Q 192.229 72.907 190.234 71.587 A 2.946 2.946 0 0 1 188.8 69.007 Q 188.647 67.787 188.611 65.549 A 92.532 92.532 0 0 1 188.6 64.057 A 59.708 59.708 0 0 1 188.636 62.168 Q 188.752 58.563 189.25 51.557 Q 189.786 44.016 189.88 39.327 A 93.454 93.454 0 0 0 189.9 37.457 Q 189.9 32.507 184.95 32.507 A 7.191 7.191 0 0 0 179.074 35.471 Q 178.2 36.579 177.493 38.102 A 17.565 17.565 0 0 0 177.4 38.307 A 29.638 29.638 0 0 0 175.121 45.829 A 26.158 26.158 0 0 0 174.8 49.907 A 36.642 36.642 0 0 0 175.009 54.009 Q 175.938 62.207 181 62.207 Q 181.9 62.207 182.75 61.857 A 17.544 17.544 0 0 1 183.046 61.738 Q 183.625 61.512 183.793 61.507 A 0.249 0.249 0 0 1 183.8 61.507 Q 184.529 61.507 184.967 62.337 A 3.002 3.002 0 0 1 185.05 62.507 A 5.096 5.096 0 0 1 185.444 63.804 A 4.493 4.493 0 0 1 185.5 64.507 A 7.251 7.251 0 0 1 183.205 69.884 A 9.571 9.571 0 0 1 182.8 70.257 A 9.512 9.512 0 0 1 177.039 72.579 A 12.326 12.326 0 0 1 176.2 72.607 Q 170.771 72.607 167.758 68.309 A 13.252 13.252 0 0 1 167.15 67.357 A 21.45 21.45 0 0 1 164.793 61.162 Q 164.1 58.024 164.1 54.307 Q 164.1 44.407 168.8 35.907 Q 171.2 31.707 175.3 29.157 A 17.015 17.015 0 0 1 183.635 26.63 A 20.602 20.602 0 0 1 184.6 26.607 A 12.408 12.408 0 0 1 186.388 26.731 A 9.589 9.589 0 0 1 187.85 27.057 A 129.683 129.683 0 0 0 188.191 27.163 Q 189.211 27.476 189.376 27.504 A 0.158 0.158 0 0 0 189.4 27.507 Z M 121.2 41.507 L 121 54.307 Q 121 65.325 122.99 69.069 A 4.67 4.67 0 0 0 123.9 70.307 A 1.474 1.474 0 0 1 124.159 70.649 A 1.16 1.16 0 0 1 124.3 71.207 A 0.851 0.851 0 0 1 123.807 71.922 Q 122.611 72.65 118.509 72.703 A 51.214 51.214 0 0 1 117.85 72.707 A 16.398 16.398 0 0 1 115.52 72.556 Q 112.923 72.182 111.809 70.875 A 3.522 3.522 0 0 1 111 68.907 A 9.722 9.722 0 0 1 110.961 68.423 Q 110.9 67.395 110.9 65.207 L 111.3 49.207 Q 111.3 48.507 110.5 48.507 Q 105.7 48.507 101.5 51.207 A 11.073 11.073 0 0 0 99.285 53.041 A 7.289 7.289 0 0 0 97.3 58.107 A 6.683 6.683 0 0 0 97.53 59.898 A 5.28 5.28 0 0 0 98.5 61.807 Q 99.7 63.307 101.45 63.307 A 7.244 7.244 0 0 0 102.678 63.209 Q 103.392 63.086 103.974 62.81 A 4.108 4.108 0 0 0 104.35 62.607 A 152.561 152.561 0 0 1 104.748 62.366 Q 105.431 61.953 105.645 61.836 A 1.827 1.827 0 0 1 105.7 61.807 Q 107.202 61.984 107.377 64.619 A 11.16 11.16 0 0 1 107.4 65.357 A 5.974 5.974 0 0 1 105.274 70.014 A 8.726 8.726 0 0 1 104.3 70.757 A 12.478 12.478 0 0 1 100.743 72.408 A 10.977 10.977 0 0 1 97.8 72.807 Q 94.52 72.807 92.125 71.691 A 10.017 10.017 0 0 1 91.95 71.607 A 14.058 14.058 0 0 1 90.441 70.757 Q 89.706 70.277 89.156 69.756 A 6.305 6.305 0 0 1 88.4 68.907 A 13.412 13.412 0 0 1 86.877 66.206 A 15.461 15.461 0 0 1 86.6 65.507 A 19.396 19.396 0 0 1 86.173 63.867 Q 85.9 62.57 85.9 61.507 A 18.021 18.021 0 0 1 86.558 56.512 A 13.631 13.631 0 0 1 90.3 50.307 A 23.21 23.21 0 0 1 97.152 45.828 A 30.399 30.399 0 0 1 101.6 44.307 A 96.123 96.123 0 0 0 104.471 43.697 Q 110.769 42.249 111.1 41.007 A 5.796 5.796 0 0 0 111.231 40.364 Q 111.345 39.62 111.382 38.496 A 36.097 36.097 0 0 0 111.4 37.307 Q 111.4 33.099 107.995 32.232 A 8.105 8.105 0 0 0 106 32.007 Q 103.7 32.007 101.9 33.457 A 5.025 5.025 0 0 0 100.702 34.814 A 4.432 4.432 0 0 0 100.1 37.107 L 100.7 39.507 A 1.686 1.686 0 0 1 99.887 40.744 Q 98.986 41.341 97.1 41.507 L 96 41.607 A 9.738 9.738 0 0 1 94.085 41.43 Q 92.398 41.092 91.25 40.107 A 4.916 4.916 0 0 1 89.513 36.53 A 6.791 6.791 0 0 1 89.5 36.107 A 5.787 5.787 0 0 1 89.701 34.64 Q 89.875 33.978 90.198 33.265 A 11.691 11.691 0 0 1 90.55 32.557 A 10.117 10.117 0 0 1 92.034 30.459 A 8.752 8.752 0 0 1 93.2 29.407 A 8.559 8.559 0 0 1 94.371 28.682 Q 95.639 28.019 97.519 27.443 A 31.556 31.556 0 0 1 98.15 27.257 A 25.255 25.255 0 0 1 102.24 26.441 A 21.28 21.28 0 0 1 104.6 26.307 Q 107.155 26.307 108.759 26.443 A 19.819 19.819 0 0 1 109.4 26.507 A 20.425 20.425 0 0 1 110.568 26.683 Q 111.808 26.903 113.488 27.317 A 77.138 77.138 0 0 1 114.05 27.457 A 10.173 10.173 0 0 1 117.527 29.049 A 9.577 9.577 0 0 1 118.95 30.307 A 9.024 9.024 0 0 1 120.199 31.986 A 6.389 6.389 0 0 1 121.05 34.757 Q 121.165 36.556 121.192 39.557 A 217.947 217.947 0 0 1 121.2 41.507 Z M 320.2 27.207 L 321.2 27.507 A 4.707 4.707 0 0 1 321.638 27.715 Q 322.4 28.129 322.4 28.607 A 0.68 0.68 0 0 1 322.185 29.1 Q 322.012 29.274 321.7 29.407 A 17.577 17.577 0 0 0 317.286 31.434 A 20.272 20.272 0 0 0 316.5 31.957 A 25.141 25.141 0 0 0 315.65 32.577 Q 314 33.839 314 34.407 L 314.6 35.107 A 11.028 11.028 0 0 1 318.442 38.767 A 14.781 14.781 0 0 1 319.55 40.807 A 28.882 28.882 0 0 1 320.626 43.55 Q 321.087 44.944 321.312 46.201 A 13.765 13.765 0 0 1 321.5 47.707 L 321.7 50.807 A 29.228 29.228 0 0 1 320.792 58.273 A 21.932 21.932 0 0 1 316.2 67.107 Q 310.7 73.507 301.2 73.507 A 22.823 22.823 0 0 1 297.249 73.182 Q 294.887 72.767 292.931 71.822 A 14.507 14.507 0 0 1 292.9 71.807 A 20.513 20.513 0 0 1 290.712 70.585 Q 289.626 69.882 288.805 69.113 A 9.584 9.584 0 0 1 287.75 67.957 A 18.294 18.294 0 0 1 285.228 63.443 A 20.52 20.52 0 0 1 285.1 63.107 Q 283.9 59.407 283.9 55.457 A 24.487 24.487 0 0 1 285.009 48.257 A 27.781 27.781 0 0 1 285.25 47.507 A 27.438 27.438 0 0 1 286.133 45.212 Q 287.147 42.914 288.35 41.607 Q 290.1 39.707 292.3 38.507 A 20.03 20.03 0 0 1 293.769 37.791 Q 295.571 37.007 296.8 37.007 A 6.31 6.31 0 0 1 297.334 37.028 Q 298.212 37.103 298.429 37.45 A 0.475 0.475 0 0 1 298.5 37.707 L 297.9 38.707 A 13.334 13.334 0 0 0 295.915 41.921 Q 295.285 43.336 294.866 45.021 A 22.979 22.979 0 0 0 294.75 45.507 A 43.629 43.629 0 0 0 294.118 48.882 Q 293.879 50.529 293.82 51.998 A 23.691 23.691 0 0 0 293.8 52.957 Q 293.8 56.207 294.6 59.407 A 29.472 29.472 0 0 0 295.093 61.162 Q 295.611 62.796 296.202 63.83 A 7.103 7.103 0 0 0 296.4 64.157 Q 297.4 65.707 298.7 66.507 A 7.693 7.693 0 0 0 301.212 67.551 A 7.113 7.113 0 0 0 302.7 67.707 A 5.671 5.671 0 0 0 305.286 67.063 A 8.231 8.231 0 0 0 306.8 66.057 A 9.07 9.07 0 0 0 309.392 62.525 A 11.187 11.187 0 0 0 309.7 61.707 Q 311.5 56.707 311.5 51.407 A 26.693 26.693 0 0 0 311.042 46.304 Q 310.105 41.498 307.25 38.407 A 13.535 13.535 0 0 0 300.982 34.626 Q 298.81 33.986 296.197 33.846 A 28.005 28.005 0 0 0 294.7 33.807 Q 292.1 33.907 290.95 33.957 A 4.103 4.103 0 0 1 290.842 33.961 Q 290.161 33.972 289.925 33.732 A 0.444 0.444 0 0 1 289.8 33.407 Q 289.8 32.807 290.4 32.207 Q 296.8 26.307 312 26.307 Q 317.022 26.307 319.992 27.147 A 13.534 13.534 0 0 1 320.2 27.207 Z M 240.4 70.707 L 240.8 72.007 A 1.076 1.076 0 0 1 240.151 73.036 Q 239.605 73.307 238.6 73.307 Q 232.925 73.307 230.835 70.971 A 4.611 4.611 0 0 1 229.8 69.007 A 1.136 1.136 0 0 0 229.744 68.813 Q 229.706 68.715 229.651 68.648 A 0.371 0.371 0 0 0 229.35 68.507 Q 229.057 68.507 228.799 68.788 A 1.551 1.551 0 0 0 228.7 68.907 A 9.901 9.901 0 0 1 223.021 72.561 Q 221.356 72.979 219.367 73.006 A 20.281 20.281 0 0 1 219.1 73.007 A 16.055 16.055 0 0 1 214.719 72.373 A 21.267 21.267 0 0 1 211.6 71.207 Q 209.2 70.107 207.7 67.357 A 11.714 11.714 0 0 1 206.541 64.136 Q 206.2 62.514 206.2 60.607 L 207.7 38.707 Q 207.7 33.346 206.855 30.4 A 9.411 9.411 0 0 0 206.3 28.907 A 18.74 18.74 0 0 1 206.13 28.523 Q 205.8 27.751 205.8 27.507 A 1.102 1.102 0 0 1 205.84 27.201 A 0.733 0.733 0 0 1 206.3 26.707 Q 207.463 26.344 209.1 26.245 A 21.505 21.505 0 0 1 210.4 26.207 A 17.179 17.179 0 0 1 214.001 26.55 Q 219.258 27.682 219.984 32.551 A 11.235 11.235 0 0 1 220.1 34.207 Q 220.1 36.237 218.749 42.485 A 239.606 239.606 0 0 1 218.05 45.607 Q 216.034 54.359 216.001 58.131 A 14.196 14.196 0 0 0 216 58.257 Q 216 60.789 216.752 62.523 A 6.179 6.179 0 0 0 217.65 64.007 A 5.387 5.387 0 0 0 221.274 65.948 A 7.798 7.798 0 0 0 222.25 66.007 A 6.654 6.654 0 0 0 224.364 65.687 A 5.416 5.416 0 0 0 226.9 63.907 A 11.103 11.103 0 0 0 228.032 62.234 Q 228.72 60.971 228.9 59.707 L 229.2 57.607 Q 229.568 54.384 229.597 46.666 A 360.135 360.135 0 0 0 229.6 45.307 A 227.154 227.154 0 0 0 229.581 42.234 Q 229.497 36.067 229.05 34.157 A 68.205 68.205 0 0 1 228.863 33.338 Q 228.589 32.099 228.522 31.517 A 2.807 2.807 0 0 1 228.5 31.207 Q 228.5 28.81 232.179 27.378 A 14.663 14.663 0 0 1 232.5 27.257 Q 235.888 26.029 238.702 25.841 A 14.979 14.979 0 0 1 239.7 25.807 A 2.752 2.752 0 0 1 240.247 25.857 Q 241.092 26.029 241.188 26.8 A 1.681 1.681 0 0 1 241.2 27.007 A 113.425 113.425 0 0 0 240.139 35.532 Q 239.4 43.809 239.4 54.507 A 239.365 239.365 0 0 0 239.448 59.487 Q 239.589 66.224 240.144 69.478 A 15.496 15.496 0 0 0 240.4 70.707 Z M 361.5 70.707 L 361.9 72.007 A 1.076 1.076 0 0 1 361.251 73.036 Q 360.705 73.307 359.7 73.307 Q 354.025 73.307 351.935 70.971 A 4.611 4.611 0 0 1 350.9 69.007 A 1.136 1.136 0 0 0 350.844 68.813 Q 350.806 68.715 350.751 68.648 A 0.371 0.371 0 0 0 350.45 68.507 Q 350.157 68.507 349.899 68.788 A 1.551 1.551 0 0 0 349.8 68.907 A 9.901 9.901 0 0 1 344.121 72.561 Q 342.456 72.979 340.467 73.006 A 20.281 20.281 0 0 1 340.2 73.007 A 16.055 16.055 0 0 1 335.819 72.373 A 21.267 21.267 0 0 1 332.7 71.207 Q 330.3 70.107 328.8 67.357 A 11.714 11.714 0 0 1 327.641 64.136 Q 327.3 62.514 327.3 60.607 L 328.8 38.707 Q 328.8 33.346 327.955 30.4 A 9.411 9.411 0 0 0 327.4 28.907 A 18.74 18.74 0 0 1 327.23 28.523 Q 326.9 27.751 326.9 27.507 A 1.102 1.102 0 0 1 326.94 27.201 A 0.733 0.733 0 0 1 327.4 26.707 Q 328.563 26.344 330.2 26.245 A 21.505 21.505 0 0 1 331.5 26.207 A 17.179 17.179 0 0 1 335.101 26.55 Q 340.358 27.682 341.084 32.551 A 11.235 11.235 0 0 1 341.2 34.207 Q 341.2 36.237 339.849 42.485 A 239.606 239.606 0 0 1 339.15 45.607 Q 337.134 54.359 337.101 58.131 A 14.196 14.196 0 0 0 337.1 58.257 Q 337.1 60.789 337.852 62.523 A 6.179 6.179 0 0 0 338.75 64.007 A 5.387 5.387 0 0 0 342.374 65.948 A 7.798 7.798 0 0 0 343.35 66.007 A 6.654 6.654 0 0 0 345.464 65.687 A 5.416 5.416 0 0 0 348 63.907 A 11.103 11.103 0 0 0 349.132 62.234 Q 349.82 60.971 350 59.707 L 350.3 57.607 Q 350.668 54.384 350.697 46.666 A 360.135 360.135 0 0 0 350.7 45.307 A 227.154 227.154 0 0 0 350.681 42.234 Q 350.597 36.067 350.15 34.157 A 68.205 68.205 0 0 1 349.963 33.338 Q 349.689 32.099 349.622 31.517 A 2.807 2.807 0 0 1 349.6 31.207 Q 349.6 28.81 353.279 27.378 A 14.663 14.663 0 0 1 353.6 27.257 Q 356.988 26.029 359.802 25.841 A 14.979 14.979 0 0 1 360.8 25.807 A 2.752 2.752 0 0 1 361.347 25.857 Q 362.192 26.029 362.288 26.8 A 1.681 1.681 0 0 1 362.3 27.007 A 113.425 113.425 0 0 0 361.239 35.532 Q 360.5 43.809 360.5 54.507 A 239.365 239.365 0 0 0 360.548 59.487 Q 360.689 66.224 361.244 69.478 A 15.496 15.496 0 0 0 361.5 70.707 Z M 0.3 71.707 L 0.6 70.507 Q 2.736 65.895 3.047 40.778 A 742.228 742.228 0 0 0 3.1 31.607 A 483.352 483.352 0 0 0 3.07 26.029 Q 2.941 14.857 2.25 11.607 A 100.544 100.544 0 0 0 1.895 9.996 Q 1.406 7.867 1.057 6.899 A 5.316 5.316 0 0 0 0.9 6.507 L 0.4 5.507 A 1.29 1.29 0 0 1 0.077 4.947 Q 0.017 4.742 0.004 4.498 A 2.631 2.631 0 0 1 0 4.357 A 0.956 0.956 0 0 1 0.264 3.709 Q 0.563 3.373 1.2 3.107 Q 9 0.007 21.7 0.007 A 29.51 29.51 0 0 1 33.615 2.233 Q 48.4 8.706 48.4 34.007 A 65.434 65.434 0 0 1 46.655 49.363 A 56.186 56.186 0 0 1 43.7 58.307 A 36.155 36.155 0 0 1 41.408 62.613 A 28.589 28.589 0 0 1 39.3 65.557 A 18.624 18.624 0 0 1 35.241 69.204 A 23.496 23.496 0 0 1 32.75 70.657 Q 28.7 72.707 23.8 72.707 Q 22.905 72.618 21.571 72.448 A 160.215 160.215 0 0 1 21.25 72.407 A 8.134 8.134 0 0 1 20.29 72.216 Q 19.257 71.952 17.806 71.382 A 43.839 43.839 0 0 1 16.65 70.907 Q 13.6 69.607 12.5 67.507 A 11.986 11.986 0 0 1 3.703 72.506 A 17.449 17.449 0 0 1 1.8 72.607 A 5.016 5.016 0 0 1 1.29 72.515 Q 0.781 72.392 0.534 72.182 A 0.604 0.604 0 0 1 0.3 71.707 Z M 277.6 71.807 L 277.7 79.707 A 30.721 30.721 0 0 1 277.032 86.209 A 26.709 26.709 0 0 1 276.15 89.357 A 33.517 33.517 0 0 1 274.792 92.701 Q 273.727 94.945 272.45 96.607 Q 270.3 99.407 265.95 101.507 A 20.663 20.663 0 0 1 260.273 103.261 A 27.678 27.678 0 0 1 255.8 103.607 Q 254 103.607 254 102.307 Q 254 101.633 255.483 100.959 A 9.074 9.074 0 0 1 255.6 100.907 A 14.63 14.63 0 0 0 261.233 96.067 Q 263.971 92.262 265.55 86.107 Q 268.5 74.607 268.5 58.107 A 231.485 231.485 0 0 0 268.384 50.448 Q 267.9 35.923 265.404 33.138 A 2.282 2.282 0 0 0 264.9 32.707 A 5.629 5.629 0 0 1 264.516 32.416 Q 263.93 31.925 263.901 31.546 A 0.513 0.513 0 0 1 263.9 31.507 A 1.488 1.488 0 0 1 264.329 30.531 Q 265.201 29.538 267.848 28.545 A 30.947 30.947 0 0 1 269.1 28.107 A 66.207 66.207 0 0 1 271.519 27.364 Q 274.875 26.407 276.6 26.407 A 7.264 7.264 0 0 1 277.352 26.443 Q 278.9 26.605 278.9 27.507 A 132.128 132.128 0 0 0 278.352 33.976 Q 278 39.695 278 46.507 Q 277.725 56.614 277.639 64.782 A 669.432 669.432 0 0 0 277.6 71.807 Z M 398.1 37.107 L 397.6 44.707 L 398 48.207 A 1.548 1.548 0 0 1 397.014 49.676 Q 396.276 50.03 394.986 50.094 A 11.983 11.983 0 0 1 394.4 50.107 A 14.242 14.242 0 0 1 391.758 49.885 Q 387.409 49.059 387.12 45.174 A 7.663 7.663 0 0 1 387.1 44.607 A 6.774 6.774 0 0 1 387.165 43.722 Q 387.289 42.788 387.651 41.515 A 28.107 28.107 0 0 1 387.8 41.007 A 19.396 19.396 0 0 0 388.227 39.367 Q 388.5 38.07 388.5 37.007 Q 388.5 35.307 387.5 34.057 Q 386.5 32.807 384.6 32.807 A 4.424 4.424 0 0 0 381.392 34.115 A 5.392 5.392 0 0 0 381.35 34.157 A 7.667 7.667 0 0 0 380.5 35.155 Q 380.081 35.751 379.86 36.355 A 4.13 4.13 0 0 0 379.7 36.907 L 379.3 38.307 Q 378.848 40.644 378.736 45.34 A 140.562 140.562 0 0 0 378.7 48.657 Q 378.7 54.208 378.817 57.942 A 126.894 126.894 0 0 0 378.9 60.057 Q 379.073 63.654 379.247 65.298 A 20.03 20.03 0 0 0 379.3 65.757 A 100.246 100.246 0 0 1 379.368 66.295 Q 379.482 67.221 379.498 67.528 A 1.645 1.645 0 0 1 379.5 67.607 A 3.748 3.748 0 0 1 378.304 70.346 Q 377.78 70.866 377.026 71.316 A 9.641 9.641 0 0 1 376.4 71.657 A 14.928 14.928 0 0 1 372.913 72.911 A 12.66 12.66 0 0 1 370.2 73.207 A 11.155 11.155 0 0 1 369.186 73.165 Q 367.549 73.015 367.197 72.326 A 0.906 0.906 0 0 1 367.1 71.907 L 367.6 68.807 Q 368.541 62.962 368.849 54.724 A 230.877 230.877 0 0 0 369 46.107 A 309.445 309.445 0 0 0 368.945 40.039 Q 368.766 30.935 368 27.107 Q 368 25.907 370.1 25.907 A 12.127 12.127 0 0 1 372.715 26.168 Q 375.978 26.89 377.3 29.607 A 1.063 1.063 0 0 0 377.349 29.758 Q 377.453 30.007 377.65 30.007 A 0.371 0.371 0 0 0 377.787 29.97 Q 378.123 29.824 379 29.107 A 11.906 11.906 0 0 1 386.642 26.408 A 14.893 14.893 0 0 1 386.8 26.407 A 15.018 15.018 0 0 1 391.788 27.28 A 17.304 17.304 0 0 1 392.4 27.507 A 8.433 8.433 0 0 1 397.646 33.385 Q 398.1 35.047 398.1 37.107 Z M 83.336 62.866 A 15.743 15.743 0 0 0 83.7 59.407 A 2.254 2.254 0 0 0 83.687 59.171 Q 83.627 58.606 83.3 57.707 Q 83.084 57.114 82.796 56.841 A 0.777 0.777 0 0 0 82.25 56.607 Q 81.6 56.607 81.2 57.407 A 13.282 13.282 0 0 1 80.734 58.336 A 11.169 11.169 0 0 1 78.6 61.107 Q 75.6 63.907 71.3 63.907 A 10.927 10.927 0 0 1 69.135 63.704 A 7.102 7.102 0 0 1 64.8 61.107 Q 64 59.907 63.35 58.157 A 19.065 19.065 0 0 1 63.134 57.547 Q 62.7 56.243 62.7 55.507 A 1.002 1.002 0 0 1 62.715 55.329 Q 62.786 54.935 63.198 54.838 A 1.33 1.33 0 0 1 63.5 54.807 A 49.347 49.347 0 0 0 64.219 54.728 Q 69.569 54.095 73.6 52.407 A 39.969 39.969 0 0 0 73.778 52.332 Q 76.48 51.186 78.253 49.959 A 11.899 11.899 0 0 0 79.9 48.607 Q 81.9 46.607 83.1 44.107 A 34.707 34.707 0 0 0 83.609 43 Q 84.091 41.899 84.323 41.11 A 6.135 6.135 0 0 0 84.5 40.357 A 10.149 10.149 0 0 0 84.528 40.171 Q 84.642 39.362 84.68 38.213 A 37.706 37.706 0 0 0 84.7 36.957 Q 84.7 35.681 84.242 34.316 A 12.123 12.123 0 0 0 83.4 32.407 A 10.718 10.718 0 0 0 80.548 28.847 Q 78.55 27.243 75.688 26.578 A 19.851 19.851 0 0 0 71.2 26.107 A 22.79 22.79 0 0 0 67.943 26.332 A 15.955 15.955 0 0 0 56.35 33.707 A 29.858 29.858 0 0 0 53.238 39.973 A 32.699 32.699 0 0 0 51.4 51.057 Q 51.4 60.807 55.4 67.107 A 12.81 12.81 0 0 0 62.761 72.729 A 17.642 17.642 0 0 0 67.8 73.407 A 19.318 19.318 0 0 0 70.385 73.229 A 23.789 23.789 0 0 0 74.1 72.407 A 18.969 18.969 0 0 0 75.811 71.792 A 15.29 15.29 0 0 0 78.65 70.257 A 8.323 8.323 0 0 0 79.472 69.606 Q 80.239 68.917 80.938 67.975 A 16.229 16.229 0 0 0 82.15 66.057 A 12.28 12.28 0 0 0 83.336 62.866 Z M 139.8 14.307 L 139.2 51.007 A 424.742 424.742 0 0 0 139.239 56.972 Q 139.402 68.538 140.254 71.459 A 5.388 5.388 0 0 0 140.3 71.607 A 2.889 2.889 0 0 1 140.543 72.282 A 2.45 2.45 0 0 1 140.6 72.807 A 0.883 0.883 0 0 1 140.103 73.595 Q 139.399 74.007 137.7 74.007 A 13.803 13.803 0 0 1 134.838 73.689 Q 133.562 73.418 132.182 72.917 A 25.264 25.264 0 0 1 131.25 72.557 Q 128.265 71.338 127.79 69.518 A 2.802 2.802 0 0 1 127.7 68.807 A 160.71 160.71 0 0 0 128.755 59.139 Q 129.637 48.268 129.696 33.524 A 532.656 532.656 0 0 0 129.7 31.407 L 129.3 16.107 A 16.478 16.478 0 0 0 128.981 13.81 Q 128.722 12.605 128.28 11.592 A 9.795 9.795 0 0 0 128.15 11.307 Q 127.2 9.307 126.3 8.707 L 125.5 8.207 Q 124.818 7.818 124.8 7.334 A 0.709 0.709 0 0 1 124.8 7.307 Q 124.8 6.11 127.98 4.438 A 29.985 29.985 0 0 1 129.15 3.857 Q 133.5 1.807 137.6 1.807 A 3.486 3.486 0 0 1 138.228 1.859 Q 138.553 1.919 138.79 2.048 A 1.164 1.164 0 0 1 139.4 2.907 Q 139.8 5.507 139.8 14.307 Z M 20.9 6.707 A 9.065 9.065 0 0 0 19.445 6.818 Q 18.626 6.951 17.94 7.245 A 5.499 5.499 0 0 0 17.8 7.307 A 3.856 3.856 0 0 0 17.262 7.605 Q 17 7.781 16.828 7.979 A 1.233 1.233 0 0 0 16.5 8.807 A 16.87 16.87 0 0 0 16.062 11.2 Q 15.3 17.242 15.3 33.857 A 7331.438 7331.438 0 0 1 15.298 38.783 Q 15.288 55.02 15.2 57.207 Q 17.1 60.207 21.1 60.207 A 10.397 10.397 0 0 0 29.676 55.929 A 17.982 17.982 0 0 0 31.8 52.357 A 36.191 36.191 0 0 0 34.261 44.723 Q 35.4 39.323 35.4 32.657 Q 35.4 24.547 33.761 18.685 A 28.063 28.063 0 0 0 31.9 13.757 A 14.282 14.282 0 0 0 29.191 9.908 Q 26.207 6.957 21.679 6.727 A 15.311 15.311 0 0 0 20.9 6.707 Z M 61.9 46.107 L 62 48.607 A 0.63 0.63 0 0 0 62.056 48.884 Q 62.213 49.207 62.8 49.207 A 15.756 15.756 0 0 0 65.887 48.619 A 12.437 12.437 0 0 0 68.4 47.557 A 14.11 14.11 0 0 0 70.092 46.449 Q 71.269 45.543 72 44.507 A 24.083 24.083 0 0 0 73.258 42.345 Q 74.438 40.029 74.594 38.178 A 6.975 6.975 0 0 0 74.6 38.107 L 74.7 36.907 Q 74.7 31.975 71.112 31.548 A 6.028 6.028 0 0 0 70.4 31.507 A 5.962 5.962 0 0 0 65.795 33.566 A 8.273 8.273 0 0 0 65.2 34.307 A 15.444 15.444 0 0 0 62.699 39.55 Q 62.101 41.731 61.951 44.318 A 30.786 30.786 0 0 0 61.9 46.107 Z M 274.6 18.007 L 272.2 17.907 Q 269.5 17.907 268.7 19.207 A 0.819 0.819 0 0 1 268.565 19.365 A 0.533 0.533 0 0 1 268.2 19.507 A 0.813 0.813 0 0 1 267.507 19.062 Q 267.04 18.321 266.932 16.351 A 23.792 23.792 0 0 1 266.9 15.057 A 22.865 22.865 0 0 1 266.965 13.266 Q 267.18 10.534 268.117 9.537 A 2.066 2.066 0 0 1 268.25 9.407 Q 269.438 8.351 272.214 8.225 A 17.259 17.259 0 0 1 273 8.207 Q 276.4 8.207 277.55 9.357 Q 278.7 10.507 278.7 13.207 Q 278.7 15.907 277.8 16.957 A 2.556 2.556 0 0 1 276.838 17.637 Q 276.021 17.984 274.77 18.006 A 9.739 9.739 0 0 1 274.6 18.007 Z" vector-effect="non-scaling-stroke"/></g></svg>