<svg width="406.3" height="69.202" viewBox="0 0 406.3 69.202" xmlns="http://www.w3.org/2000/svg"><g id="svgGroup" stroke-linecap="round" fill-rule="evenodd" font-size="9pt" stroke="#000" stroke-width="0.25mm" fill="#000" style="stroke:#000;stroke-width:0.25mm;fill:#000"><path d="M 209.5 68.6 L 209.5 0.9 L 249.7 0.9 L 249.7 9.9 L 221.4 9.9 L 221.4 28.8 L 244.7 28.8 L 243.2 37.9 L 221.4 37.9 L 221.4 59.6 L 251.2 59.6 L 251.2 68.6 L 209.5 68.6 Z M 364.6 68.6 L 364.6 0.9 L 404.8 0.9 L 404.8 9.9 L 376.5 9.9 L 376.5 28.8 L 399.8 28.8 L 398.3 37.9 L 376.5 37.9 L 376.5 59.6 L 406.3 59.6 L 406.3 68.6 L 364.6 68.6 Z M 43.1 5.3 L 38.2 13.9 L 36.9 13.2 Q 36.027 12.73 34.792 12.169 A 66.312 66.312 0 0 0 33.5 11.6 Q 31.4 10.7 28.9 10 A 19.076 19.076 0 0 0 25.853 9.399 A 15.951 15.951 0 0 0 24.1 9.3 A 12.832 12.832 0 0 0 20.835 9.699 A 10.355 10.355 0 0 0 17.85 11 Q 15.2 12.7 15.2 16.3 A 11.387 11.387 0 0 0 15.716 19.804 A 9.328 9.328 0 0 0 18.1 23.65 Q 20.94 26.442 26.946 28.801 A 54.129 54.129 0 0 0 27.2 28.9 Q 31.2 30.5 34.35 32.25 Q 37.5 34 39.7 36.3 Q 41.9 38.6 43.05 41.6 A 16.261 16.261 0 0 1 43.875 44.677 Q 44.134 46.185 44.187 47.908 A 29.291 29.291 0 0 1 44.2 48.8 Q 44.2 52.6 42.75 56.3 Q 41.3 60 38.45 62.85 A 20.443 20.443 0 0 1 33.656 66.379 A 25.074 25.074 0 0 1 31.4 67.45 A 22.138 22.138 0 0 1 26.264 68.865 A 29.746 29.746 0 0 1 21.7 69.2 Q 17.8 69.2 14.3 68.4 Q 10.8 67.6 7.95 66.55 A 48.482 48.482 0 0 1 5.609 65.622 Q 4.555 65.17 3.642 64.709 A 27.254 27.254 0 0 1 3.05 64.4 A 159.482 159.482 0 0 1 2.091 63.882 Q 0.75 63.15 0 62.7 L 4.2 53.5 L 6 54.5 Q 7.378 55.266 9.225 56.149 A 96.445 96.445 0 0 0 10.4 56.7 Q 13 57.9 15.9 58.9 Q 17.987 59.62 19.66 59.822 A 10.373 10.373 0 0 0 20.9 59.9 Q 24.337 59.9 26.638 58.807 A 7.695 7.695 0 0 0 28.8 57.3 A 8.507 8.507 0 0 0 31.003 53.352 Q 31.35 52.026 31.394 50.454 A 16.447 16.447 0 0 0 31.4 50 A 11.69 11.69 0 0 0 31.251 48.089 A 8.511 8.511 0 0 0 30.7 46.15 Q 30 44.5 28.7 43.3 A 12.795 12.795 0 0 0 26.962 41.964 A 16.39 16.39 0 0 0 25.55 41.15 Q 23.7 40.2 21.4 39.3 Q 16.9 37.4 13.35 35.5 A 28.815 28.815 0 0 1 9.596 33.12 A 23.369 23.369 0 0 1 7.3 31.15 Q 4.8 28.7 3.5 25.55 Q 2.2 22.4 2.2 18 Q 2.2 14.3 3.8 11.05 Q 5.4 7.8 8.2 5.35 A 20.401 20.401 0 0 1 12.906 2.291 A 24.619 24.619 0 0 1 14.9 1.45 A 23.19 23.19 0 0 1 20.78 0.128 A 28.323 28.323 0 0 1 23.5 0 A 34.136 34.136 0 0 1 29.193 0.463 A 30.986 30.986 0 0 1 30.2 0.65 A 61.238 61.238 0 0 1 33.626 1.445 A 48.151 48.151 0 0 1 36.05 2.15 A 45.45 45.45 0 0 1 37.925 2.795 Q 39.394 3.338 40.55 3.9 Q 42.4 4.8 43.1 5.3 Z M 200.5 7.2 L 194.4 14.5 Q 192 11.9 189.35 10.55 A 12.237 12.237 0 0 0 185.606 9.375 A 16.016 16.016 0 0 0 183.2 9.2 A 15.723 15.723 0 0 0 179.819 9.546 A 11.377 11.377 0 0 0 175.95 11.15 A 13.751 13.751 0 0 0 171.915 15.309 A 16.726 16.726 0 0 0 171.2 16.55 A 24.424 24.424 0 0 0 169.491 20.795 A 32.292 32.292 0 0 0 168.6 24.6 A 54.155 54.155 0 0 0 167.895 30.939 A 65.623 65.623 0 0 0 167.8 34.5 A 66.231 66.231 0 0 0 168.093 40.852 A 54.625 54.625 0 0 0 168.55 44.4 A 29.633 29.633 0 0 0 169.652 48.962 A 23.145 23.145 0 0 0 171.15 52.5 A 14.633 14.633 0 0 0 174.481 56.757 A 13.853 13.853 0 0 0 176.15 58 A 12.222 12.222 0 0 0 179.963 59.561 Q 181.85 60 184.1 60 A 23.964 23.964 0 0 0 187.705 59.736 A 21.593 21.593 0 0 0 188.5 59.6 Q 190.6 59.2 192.35 58.75 Q 194.079 58.306 195.223 57.91 A 19.761 19.761 0 0 0 195.25 57.9 A 581.309 581.309 0 0 1 195.651 57.761 Q 196.456 57.482 196.7 57.4 L 199.5 65.8 L 198.2 66.3 A 22.721 22.721 0 0 1 197.285 66.628 Q 196.323 66.951 194.995 67.326 A 82.462 82.462 0 0 1 194.55 67.45 A 42.668 42.668 0 0 1 192.661 67.924 Q 191.611 68.163 190.424 68.387 A 79.477 79.477 0 0 1 188.95 68.65 A 38.474 38.474 0 0 1 185.088 69.095 A 49.551 49.551 0 0 1 181.8 69.2 A 33.292 33.292 0 0 1 173.744 68.285 A 21.562 21.562 0 0 1 161.65 60.65 Q 154.9 52.1 154.9 35.6 Q 154.9 27.7 156.7 21.15 A 34.999 34.999 0 0 1 159.305 14.378 A 28.718 28.718 0 0 1 162.15 9.9 Q 165.8 5.2 171.35 2.6 A 26.72 26.72 0 0 1 178.211 0.498 A 36.691 36.691 0 0 1 184.4 0 Q 189.095 0 192.473 1.347 A 14.101 14.101 0 0 1 194.25 2.2 A 27.1 27.1 0 0 1 197.713 4.531 A 20.455 20.455 0 0 1 200.5 7.2 Z M 91.7 68.6 L 117.7 0.9 L 127.1 0.9 L 153.2 68.6 L 140.5 68.6 L 134.3 50.9 L 109.9 50.9 L 103.5 68.6 L 91.7 68.6 Z M 253.3 68.6 L 279.3 0.9 L 288.7 0.9 L 314.8 68.6 L 302.1 68.6 L 295.9 50.9 L 271.5 50.9 L 265.1 68.6 L 253.3 68.6 Z M 309.3 0.9 L 356.5 0.9 L 355 9.9 L 338.2 9.9 L 338.2 68.6 L 326.4 68.6 L 326.4 9.9 L 309.3 9.9 L 309.3 0.9 Z M 54.7 68.6 L 54.7 0.9 Q 55.379 0.9 57.75 0.853 A 868.153 868.153 0 0 0 57.9 0.85 Q 60.39 0.801 63.476 0.8 A 245.122 245.122 0 0 1 63.5 0.8 Q 66.6 0.8 69.7 0.75 Q 72.8 0.7 74.8 0.7 A 43.428 43.428 0 0 1 81.318 1.156 Q 84.653 1.663 87.323 2.736 A 17.338 17.338 0 0 1 92.8 6.15 Q 98.6 11.6 98.6 21.1 A 23.064 23.064 0 0 1 97.943 26.686 A 20.094 20.094 0 0 1 97 29.55 Q 95.4 33.4 92.25 36.2 Q 89.1 39 84.45 40.55 Q 80.091 42.003 74.369 42.094 A 48.45 48.45 0 0 1 73.6 42.1 L 66.6 42.1 L 66.6 68.6 L 54.7 68.6 Z M 66.6 9.3 L 66.6 33.2 L 74.3 33.2 Q 78.124 33.2 80.621 31.985 A 7.833 7.833 0 0 0 83.3 29.9 A 11.717 11.717 0 0 0 85.723 24.583 A 16.403 16.403 0 0 0 86 21.5 Q 86 19.2 85.4 17 Q 84.8 14.8 83.35 13.05 Q 81.9 11.3 79.45 10.25 Q 77.448 9.392 74.61 9.235 A 23.76 23.76 0 0 0 73.3 9.2 L 69.45 9.2 A 46.495 46.495 0 0 0 68.276 9.214 Q 67.35 9.238 66.6 9.3 Z M 113.1 42.1 L 131.2 42.1 Q 128 33.1 125.7 25.75 A 919.631 919.631 0 0 1 124.619 22.272 Q 123.1 17.35 122.2 14.2 A 2014.901 2014.901 0 0 1 121.444 16.625 Q 120.225 20.525 118.5 26 Q 116.2 33.3 113.1 42.1 Z M 274.7 42.1 L 292.8 42.1 Q 289.6 33.1 287.3 25.75 A 919.631 919.631 0 0 1 286.219 22.272 Q 284.7 17.35 283.8 14.2 A 2014.901 2014.901 0 0 1 283.044 16.625 Q 281.825 20.525 280.1 26 Q 277.8 33.3 274.7 42.1 Z" vector-effect="non-scaling-stroke"/></g></svg>