<svg width="299.6" height="102.601" viewBox="0 0 299.6 102.601" xmlns="http://www.w3.org/2000/svg"><g id="svgGroup" stroke-linecap="round" fill-rule="evenodd" font-size="9pt" stroke="#000" stroke-width="0.25mm" fill="#000" style="stroke:#000;stroke-width:0.25mm;fill:#000"><path d="M 33.5 16.701 L 33.9 13.601 Q 33.9 9.001 30.3 7.701 A 30.864 30.864 0 0 0 28.982 7.307 Q 27.578 6.925 26.593 6.831 A 6.306 6.306 0 0 0 26 6.801 L 25.9 6.801 Q 23.032 6.801 20.895 7.669 A 9.754 9.754 0 0 0 20.7 7.751 A 10.597 10.597 0 0 0 19.33 8.457 Q 18.157 9.182 17.5 10.101 A 13.351 13.351 0 0 0 15.742 13.363 A 11.365 11.365 0 0 0 15.1 16.201 Q 15.1 20.001 18.5 22.751 A 30.269 30.269 0 0 0 22.751 25.605 A 40.173 40.173 0 0 0 26.75 27.551 Q 31.6 29.601 36.45 32.001 Q 41.3 34.401 44.7 38.901 A 16.772 16.772 0 0 1 47.981 47.402 A 21.62 21.62 0 0 1 48.1 49.701 A 30.944 30.944 0 0 1 47.305 56.945 A 19.54 19.54 0 0 1 40.35 68.101 Q 32.6 74.201 22.75 74.201 A 35.899 35.899 0 0 1 15.574 73.522 Q 11.03 72.595 7.453 70.403 A 22.071 22.071 0 0 1 6.45 69.751 Q 0.062 65.344 0.001 57.945 A 17.337 17.337 0 0 1 0 57.801 L 0 57.701 A 20.189 20.189 0 0 1 0.22 54.645 Q 0.503 52.798 1.15 51.251 Q 1.97 49.291 3.019 48.067 A 6.874 6.874 0 0 1 3.9 47.201 Q 5.963 45.513 7.791 44.802 A 7.318 7.318 0 0 1 9.9 44.301 L 11.1 44.201 Q 13.9 44.201 16.2 45.551 A 5.369 5.369 0 0 1 17.459 46.547 A 3.938 3.938 0 0 1 18.5 49.301 A 2.043 2.043 0 0 1 17.886 50.762 Q 17.607 51.051 17.2 51.301 A 6.023 6.023 0 0 0 15.814 52.493 A 8.267 8.267 0 0 0 14.95 53.701 A 11.772 11.772 0 0 0 14.461 54.607 Q 13.971 55.628 13.9 56.401 L 13.7 57.501 A 10.084 10.084 0 0 0 14.192 60.757 Q 15.36 64.194 19.3 65.601 A 18.279 18.279 0 0 0 20.417 65.955 Q 21.503 66.258 22.285 66.296 A 4.487 4.487 0 0 0 22.5 66.301 A 14.877 14.877 0 0 0 26.433 65.808 A 11.024 11.024 0 0 0 31.35 63.001 Q 34.7 59.701 34.7 54.601 Q 34.7 48.501 29.5 44.701 Q 25.6 41.901 21.05 40.001 A 315.986 315.986 0 0 1 19.079 39.171 Q 16.125 37.914 14.9 37.301 A 41.352 41.352 0 0 1 13.037 36.306 A 52.909 52.909 0 0 1 11.5 35.401 A 19.652 19.652 0 0 1 10.094 34.45 Q 8.875 33.551 7.5 32.301 A 13.795 13.795 0 0 1 2.817 23.113 A 19.403 19.403 0 0 1 2.7 20.951 A 21.71 21.71 0 0 1 3.474 15.029 A 17.278 17.278 0 0 1 6.6 8.901 A 22.488 22.488 0 0 1 19.719 0.827 A 35.369 35.369 0 0 1 27.6 0.001 A 31.965 31.965 0 0 1 33.233 0.471 Q 36.532 1.062 39.233 2.395 A 19.184 19.184 0 0 1 40.1 2.851 A 12.222 12.222 0 0 1 42.679 4.733 A 8.013 8.013 0 0 1 45.2 10.701 A 10.408 10.408 0 0 1 44.815 13.597 A 8.239 8.239 0 0 1 43.15 16.701 A 6.544 6.544 0 0 1 38.393 19.086 A 8.191 8.191 0 0 1 37.9 19.101 Q 36.4 19.101 34.95 18.501 Q 33.5 17.901 33.5 16.701 Z M 65.1 35.701 L 64.7 36.701 A 73.976 73.976 0 0 0 64.121 41.837 Q 63.493 49.407 63.345 62.715 A 787.241 787.241 0 0 0 63.3 71.401 Q 63.3 82.084 63.682 87.211 A 57.873 57.873 0 0 0 63.75 88.051 A 457.165 457.165 0 0 1 63.903 89.802 Q 64.167 92.902 64.197 93.888 A 7.311 7.311 0 0 1 64.2 94.101 Q 64.2 95.101 63.6 95.901 Q 61.6 98.501 58.2 100.551 A 19.058 19.058 0 0 1 56.153 101.632 Q 55.071 102.117 54.082 102.359 A 7.91 7.91 0 0 1 52.2 102.601 A 1.083 1.083 0 0 1 51.751 102.515 Q 51.288 102.306 51.214 101.59 A 2.824 2.824 0 0 1 51.2 101.301 A 91.375 91.375 0 0 0 51.867 95.72 Q 52.997 83.676 53.7 56.801 Q 53.9 46.701 53.9 40.201 A 84.882 84.882 0 0 0 53.394 30.789 A 74.841 74.841 0 0 0 53 27.801 A 0.799 0.799 0 0 1 53.492 27.055 Q 53.881 26.858 54.577 26.814 A 6.733 6.733 0 0 1 55 26.801 A 13.437 13.437 0 0 1 56.59 26.89 Q 57.612 27.012 58.45 27.301 A 10.171 10.171 0 0 1 59.199 27.59 Q 59.924 27.906 60.344 28.258 A 2.402 2.402 0 0 1 60.5 28.401 Q 62.099 30 62.35 30.001 Q 62.564 30.001 63.547 29.342 A 28.893 28.893 0 0 0 63.9 29.101 Q 67.8 26.601 72.55 26.601 A 15.854 15.854 0 0 1 77.194 27.259 A 13.537 13.537 0 0 1 80.85 29.001 Q 84.4 31.401 85.9 35.301 Q 88.6 42.001 88.6 49.501 A 42.64 42.64 0 0 1 86.227 63.376 A 48.399 48.399 0 0 1 85.9 64.301 A 17.206 17.206 0 0 1 83.662 68.491 A 14.892 14.892 0 0 1 81.5 70.851 Q 78.6 73.401 74.7 73.401 Q 67 73.401 67 64.501 Q 67 62.561 67.654 62.189 A 0.688 0.688 0 0 1 68 62.101 A 0.448 0.448 0 0 1 68.102 62.117 Q 68.378 62.185 69.15 62.551 Q 70.1 63.001 71 63.001 Q 78.1 63.001 78.1 47.951 A 44.754 44.754 0 0 0 77.844 42.932 Q 77.27 37.881 75.413 35.373 A 5.806 5.806 0 0 0 70.5 32.901 A 7.717 7.717 0 0 0 68.844 33.07 A 5.62 5.62 0 0 0 66.95 33.851 A 8.98 8.98 0 0 0 66.218 34.381 Q 65.388 35.054 65.1 35.701 Z M 126.9 42.101 L 126.7 54.901 Q 126.7 65.919 128.69 69.662 A 4.67 4.67 0 0 0 129.6 70.901 A 1.474 1.474 0 0 1 129.859 71.243 A 1.16 1.16 0 0 1 130 71.801 A 0.851 0.851 0 0 1 129.508 72.516 Q 128.311 73.244 124.209 73.297 A 51.214 51.214 0 0 1 123.55 73.301 A 16.398 16.398 0 0 1 121.22 73.15 Q 118.623 72.775 117.509 71.468 A 3.522 3.522 0 0 1 116.7 69.501 A 9.722 9.722 0 0 1 116.661 69.016 Q 116.6 67.989 116.6 65.801 L 117 49.801 Q 117 49.101 116.2 49.101 Q 111.4 49.101 107.2 51.801 A 11.073 11.073 0 0 0 104.985 53.635 A 7.289 7.289 0 0 0 103 58.701 A 6.683 6.683 0 0 0 103.23 60.492 A 5.28 5.28 0 0 0 104.2 62.401 Q 105.4 63.901 107.15 63.901 A 7.244 7.244 0 0 0 108.378 63.803 Q 109.092 63.68 109.675 63.403 A 4.108 4.108 0 0 0 110.05 63.201 A 152.561 152.561 0 0 1 110.448 62.96 Q 111.131 62.547 111.345 62.43 A 1.827 1.827 0 0 1 111.4 62.401 Q 112.902 62.578 113.077 65.213 A 11.16 11.16 0 0 1 113.1 65.951 A 5.974 5.974 0 0 1 110.974 70.608 A 8.726 8.726 0 0 1 110 71.351 A 12.478 12.478 0 0 1 106.443 73.002 A 10.977 10.977 0 0 1 103.5 73.401 Q 100.221 73.401 97.825 72.285 A 10.017 10.017 0 0 1 97.65 72.201 A 14.058 14.058 0 0 1 96.141 71.351 Q 95.407 70.871 94.856 70.35 A 6.305 6.305 0 0 1 94.1 69.501 A 13.412 13.412 0 0 1 92.577 66.8 A 15.461 15.461 0 0 1 92.3 66.101 A 19.396 19.396 0 0 1 91.874 64.46 Q 91.6 63.164 91.6 62.101 A 18.021 18.021 0 0 1 92.258 57.106 A 13.631 13.631 0 0 1 96 50.901 A 23.21 23.21 0 0 1 102.852 46.422 A 30.399 30.399 0 0 1 107.3 44.901 A 96.123 96.123 0 0 0 110.171 44.291 Q 116.469 42.843 116.8 41.601 A 5.796 5.796 0 0 0 116.932 40.957 Q 117.045 40.214 117.082 39.09 A 36.097 36.097 0 0 0 117.1 37.901 Q 117.1 33.693 113.696 32.826 A 8.105 8.105 0 0 0 111.7 32.601 Q 109.4 32.601 107.6 34.051 A 5.025 5.025 0 0 0 106.402 35.408 A 4.432 4.432 0 0 0 105.8 37.701 L 106.4 40.101 A 1.686 1.686 0 0 1 105.588 41.338 Q 104.686 41.935 102.8 42.101 L 101.7 42.201 A 9.738 9.738 0 0 1 99.785 42.024 Q 98.099 41.685 96.95 40.701 A 4.916 4.916 0 0 1 95.213 37.123 A 6.791 6.791 0 0 1 95.2 36.701 A 5.787 5.787 0 0 1 95.401 35.234 Q 95.575 34.572 95.898 33.859 A 11.691 11.691 0 0 1 96.25 33.151 A 10.117 10.117 0 0 1 97.734 31.053 A 8.752 8.752 0 0 1 98.9 30.001 A 8.559 8.559 0 0 1 100.071 29.275 Q 101.34 28.613 103.219 28.037 A 31.556 31.556 0 0 1 103.85 27.851 A 25.255 25.255 0 0 1 107.94 27.035 A 21.28 21.28 0 0 1 110.3 26.901 Q 112.855 26.901 114.459 27.037 A 19.819 19.819 0 0 1 115.1 27.101 A 20.425 20.425 0 0 1 116.269 27.277 Q 117.508 27.497 119.188 27.91 A 77.138 77.138 0 0 1 119.75 28.051 A 10.173 10.173 0 0 1 123.227 29.642 A 9.577 9.577 0 0 1 124.65 30.901 A 9.024 9.024 0 0 1 125.899 32.58 A 6.389 6.389 0 0 1 126.75 35.351 Q 126.865 37.15 126.892 40.151 A 217.947 217.947 0 0 1 126.9 42.101 Z M 239.8 42.101 L 239.6 54.901 Q 239.6 65.919 241.59 69.662 A 4.67 4.67 0 0 0 242.5 70.901 A 1.474 1.474 0 0 1 242.759 71.243 A 1.16 1.16 0 0 1 242.9 71.801 A 0.851 0.851 0 0 1 242.408 72.516 Q 241.211 73.244 237.109 73.297 A 51.214 51.214 0 0 1 236.45 73.301 A 16.398 16.398 0 0 1 234.12 73.15 Q 231.523 72.775 230.409 71.468 A 3.522 3.522 0 0 1 229.6 69.501 A 9.722 9.722 0 0 1 229.561 69.016 Q 229.5 67.989 229.5 65.801 L 229.9 49.801 Q 229.9 49.101 229.1 49.101 Q 224.3 49.101 220.1 51.801 A 11.073 11.073 0 0 0 217.885 53.635 A 7.289 7.289 0 0 0 215.9 58.701 A 6.683 6.683 0 0 0 216.13 60.492 A 5.28 5.28 0 0 0 217.1 62.401 Q 218.3 63.901 220.05 63.901 A 7.244 7.244 0 0 0 221.278 63.803 Q 221.992 63.68 222.575 63.403 A 4.108 4.108 0 0 0 222.95 63.201 A 152.561 152.561 0 0 1 223.348 62.96 Q 224.031 62.547 224.245 62.43 A 1.827 1.827 0 0 1 224.3 62.401 Q 225.802 62.578 225.977 65.213 A 11.16 11.16 0 0 1 226 65.951 A 5.974 5.974 0 0 1 223.874 70.608 A 8.726 8.726 0 0 1 222.9 71.351 A 12.478 12.478 0 0 1 219.343 73.002 A 10.977 10.977 0 0 1 216.4 73.401 Q 213.121 73.401 210.725 72.285 A 10.017 10.017 0 0 1 210.55 72.201 A 14.058 14.058 0 0 1 209.041 71.351 Q 208.307 70.871 207.756 70.35 A 6.305 6.305 0 0 1 207 69.501 A 13.412 13.412 0 0 1 205.477 66.8 A 15.461 15.461 0 0 1 205.2 66.101 A 19.396 19.396 0 0 1 204.774 64.46 Q 204.5 63.164 204.5 62.101 A 18.021 18.021 0 0 1 205.158 57.106 A 13.631 13.631 0 0 1 208.9 50.901 A 23.21 23.21 0 0 1 215.752 46.422 A 30.399 30.399 0 0 1 220.2 44.901 A 96.123 96.123 0 0 0 223.071 44.291 Q 229.369 42.843 229.7 41.601 A 5.796 5.796 0 0 0 229.832 40.957 Q 229.945 40.214 229.982 39.09 A 36.097 36.097 0 0 0 230 37.901 Q 230 33.693 226.596 32.826 A 8.105 8.105 0 0 0 224.6 32.601 Q 222.3 32.601 220.5 34.051 A 5.025 5.025 0 0 0 219.302 35.408 A 4.432 4.432 0 0 0 218.7 37.701 L 219.3 40.101 A 1.686 1.686 0 0 1 218.488 41.338 Q 217.586 41.935 215.7 42.101 L 214.6 42.201 A 9.738 9.738 0 0 1 212.685 42.024 Q 210.999 41.685 209.85 40.701 A 4.916 4.916 0 0 1 208.113 37.123 A 6.791 6.791 0 0 1 208.1 36.701 A 5.787 5.787 0 0 1 208.301 35.234 Q 208.475 34.572 208.798 33.859 A 11.691 11.691 0 0 1 209.15 33.151 A 10.117 10.117 0 0 1 210.634 31.053 A 8.752 8.752 0 0 1 211.8 30.001 A 8.559 8.559 0 0 1 212.971 29.275 Q 214.24 28.613 216.119 28.037 A 31.556 31.556 0 0 1 216.75 27.851 A 25.255 25.255 0 0 1 220.84 27.035 A 21.28 21.28 0 0 1 223.2 26.901 Q 225.755 26.901 227.359 27.037 A 19.819 19.819 0 0 1 228 27.101 A 20.425 20.425 0 0 1 229.169 27.277 Q 230.408 27.497 232.088 27.91 A 77.138 77.138 0 0 1 232.65 28.051 A 10.173 10.173 0 0 1 236.127 29.642 A 9.577 9.577 0 0 1 237.55 30.901 A 9.024 9.024 0 0 1 238.799 32.58 A 6.389 6.389 0 0 1 239.65 35.351 Q 239.765 37.15 239.792 40.151 A 217.947 217.947 0 0 1 239.8 42.101 Z M 161.963 69.331 A 11.598 11.598 0 0 0 165.7 60.601 Q 165.7 59.301 165.25 57.651 Q 164.8 56.001 163.9 56.001 Q 163.45 56.001 163.112 56.452 A 2.291 2.291 0 0 0 162.9 56.801 A 12.59 12.59 0 0 1 162.409 57.882 A 10.313 10.313 0 0 1 160.8 60.201 A 13.132 13.132 0 0 1 159.671 61.301 A 9.372 9.372 0 0 1 153.4 63.701 A 11.763 11.763 0 0 1 151.325 63.525 A 8.596 8.596 0 0 1 147.55 61.901 Q 145.2 60.101 144.35 57.251 Q 143.763 55.281 143.462 53.884 A 18.81 18.81 0 0 1 143.25 52.751 A 14.595 14.595 0 0 1 143.167 52.093 Q 143 50.506 143 47.851 A 23.531 23.531 0 0 1 143.135 45.365 A 28.226 28.226 0 0 1 143.95 41.051 Q 144.611 38.583 145.344 37.033 A 9.327 9.327 0 0 1 146 35.851 Q 147.1 34.201 148.75 33.151 Q 150.4 32.101 151.6 32.101 Q 156.4 32.101 156.4 36.001 A 6.715 6.715 0 0 1 156.396 36.245 Q 156.319 38.35 154.9 39.201 Q 153.3 39.901 153.2 41.001 A 5.637 5.637 0 0 0 153.245 41.727 A 3.931 3.931 0 0 0 154.6 44.301 A 12.899 12.899 0 0 0 155.132 44.735 Q 156.168 45.531 156.85 45.651 Q 157.7 45.801 159.05 45.801 A 4.337 4.337 0 0 0 159.649 45.758 Q 160.748 45.605 162 44.901 A 10.217 10.217 0 0 0 162.386 44.658 Q 164.604 43.189 165.461 40.902 A 9.062 9.062 0 0 0 166 37.701 Q 166 34.601 164.6 32.301 A 10.904 10.904 0 0 0 162.281 29.578 Q 160.233 27.861 157.289 27.169 A 19.182 19.182 0 0 0 152.9 26.701 A 23.222 23.222 0 0 0 149.284 26.973 A 17.774 17.774 0 0 0 143.3 29.001 Q 139.2 31.301 137 35.301 A 32.461 32.461 0 0 0 133.77 43.119 A 38.642 38.642 0 0 0 132.5 53.201 Q 132.5 62.701 136.8 68.251 Q 139.79 72.11 145.149 73.286 A 24.052 24.052 0 0 0 150.3 73.801 Q 156.6 73.801 161.15 70.051 A 14.999 14.999 0 0 0 161.963 69.331 Z M 201.937 63.459 A 15.743 15.743 0 0 0 202.3 60.001 A 2.254 2.254 0 0 0 202.287 59.765 Q 202.227 59.2 201.9 58.301 Q 201.685 57.708 201.396 57.435 A 0.777 0.777 0 0 0 200.85 57.201 Q 200.2 57.201 199.8 58.001 A 13.282 13.282 0 0 1 199.334 58.93 A 11.169 11.169 0 0 1 197.2 61.701 Q 194.2 64.501 189.9 64.501 A 10.927 10.927 0 0 1 187.735 64.298 A 7.102 7.102 0 0 1 183.4 61.701 Q 182.6 60.501 181.95 58.751 A 19.065 19.065 0 0 1 181.735 58.141 Q 181.3 56.837 181.3 56.101 A 1.002 1.002 0 0 1 181.315 55.923 Q 181.387 55.529 181.798 55.432 A 1.33 1.33 0 0 1 182.1 55.401 A 49.347 49.347 0 0 0 182.819 55.321 Q 188.169 54.689 192.2 53.001 A 39.969 39.969 0 0 0 192.378 52.926 Q 195.08 51.78 196.853 50.552 A 11.899 11.899 0 0 0 198.5 49.201 Q 200.5 47.201 201.7 44.701 A 34.707 34.707 0 0 0 202.209 43.594 Q 202.691 42.493 202.923 41.703 A 6.135 6.135 0 0 0 203.1 40.951 A 10.149 10.149 0 0 0 203.128 40.765 Q 203.242 39.956 203.281 38.807 A 37.706 37.706 0 0 0 203.3 37.551 Q 203.3 36.275 202.842 34.91 A 12.123 12.123 0 0 0 202 33.001 A 10.718 10.718 0 0 0 199.148 29.441 Q 197.15 27.837 194.288 27.172 A 19.851 19.851 0 0 0 189.8 26.701 A 22.79 22.79 0 0 0 186.543 26.926 A 15.955 15.955 0 0 0 174.95 34.301 A 29.858 29.858 0 0 0 171.838 40.567 A 32.699 32.699 0 0 0 170 51.651 Q 170 61.401 174 67.701 A 12.81 12.81 0 0 0 181.361 73.323 A 17.642 17.642 0 0 0 186.4 74.001 A 19.318 19.318 0 0 0 188.985 73.823 A 23.789 23.789 0 0 0 192.7 73.001 A 18.969 18.969 0 0 0 194.411 72.386 A 15.29 15.29 0 0 0 197.25 70.851 A 8.323 8.323 0 0 0 198.072 70.2 Q 198.839 69.511 199.538 68.569 A 16.229 16.229 0 0 0 200.75 66.651 A 12.28 12.28 0 0 0 201.937 63.459 Z M 298.237 63.459 A 15.743 15.743 0 0 0 298.6 60.001 A 2.254 2.254 0 0 0 298.587 59.765 Q 298.527 59.2 298.2 58.301 Q 297.985 57.708 297.696 57.435 A 0.777 0.777 0 0 0 297.15 57.201 Q 296.5 57.201 296.1 58.001 A 13.282 13.282 0 0 1 295.634 58.93 A 11.169 11.169 0 0 1 293.5 61.701 Q 290.5 64.501 286.2 64.501 A 10.927 10.927 0 0 1 284.035 64.298 A 7.102 7.102 0 0 1 279.7 61.701 Q 278.9 60.501 278.25 58.751 A 19.065 19.065 0 0 1 278.035 58.141 Q 277.6 56.837 277.6 56.101 A 1.002 1.002 0 0 1 277.615 55.923 Q 277.687 55.529 278.098 55.432 A 1.33 1.33 0 0 1 278.4 55.401 A 49.347 49.347 0 0 0 279.119 55.321 Q 284.469 54.689 288.5 53.001 A 39.969 39.969 0 0 0 288.678 52.926 Q 291.38 51.78 293.153 50.552 A 11.899 11.899 0 0 0 294.8 49.201 Q 296.8 47.201 298 44.701 A 34.707 34.707 0 0 0 298.509 43.594 Q 298.991 42.493 299.223 41.703 A 6.135 6.135 0 0 0 299.4 40.951 A 10.149 10.149 0 0 0 299.428 40.765 Q 299.542 39.956 299.581 38.807 A 37.706 37.706 0 0 0 299.6 37.551 Q 299.6 36.275 299.142 34.91 A 12.123 12.123 0 0 0 298.3 33.001 A 10.718 10.718 0 0 0 295.448 29.441 Q 293.45 27.837 290.588 27.172 A 19.851 19.851 0 0 0 286.1 26.701 A 22.79 22.79 0 0 0 282.843 26.926 A 15.955 15.955 0 0 0 271.25 34.301 A 29.858 29.858 0 0 0 268.138 40.567 A 32.699 32.699 0 0 0 266.3 51.651 Q 266.3 61.401 270.3 67.701 A 12.81 12.81 0 0 0 277.661 73.323 A 17.642 17.642 0 0 0 282.7 74.001 A 19.318 19.318 0 0 0 285.285 73.823 A 23.789 23.789 0 0 0 289 73.001 A 18.969 18.969 0 0 0 290.711 72.386 A 15.29 15.29 0 0 0 293.55 70.851 A 8.323 8.323 0 0 0 294.372 70.2 Q 295.139 69.511 295.838 68.569 A 16.229 16.229 0 0 0 297.05 66.651 A 12.28 12.28 0 0 0 298.237 63.459 Z M 244.4 33.101 L 244.7 29.101 Q 244.782 28.361 245.676 28.23 A 2.923 2.923 0 0 1 246.1 28.201 L 249.6 28.201 L 249.2 20.201 L 249.2 19.801 Q 249.2 17.501 252.7 15.401 Q 255.267 13.861 257.511 13.45 A 8.821 8.821 0 0 1 259.1 13.301 A 1.474 1.474 0 0 1 259.44 13.337 Q 260 13.47 260 14.101 L 260 14.201 Q 259.6 16.901 259.2 28.101 Q 263.6 28.101 264.8 27.901 Q 266 27.701 266.1 27.701 A 0.579 0.579 0 0 1 266.654 28.055 Q 266.783 28.318 266.798 28.775 A 3.791 3.791 0 0 1 266.8 28.901 Q 266.8 29.988 265.898 31.607 A 14.022 14.022 0 0 1 265.7 31.951 Q 264.689 33.652 263.509 33.873 A 1.93 1.93 0 0 1 263.3 33.901 L 259.1 33.901 A 156.059 156.059 0 0 0 259.057 35.892 Q 259.006 38.953 259.001 44.107 A 1209.274 1209.274 0 0 0 259 45.351 Q 259 53 259.136 58.076 A 242.863 242.863 0 0 0 259.15 58.601 Q 259.3 63.801 259.5 66.451 Q 259.7 69.101 259.95 70.701 Q 260.18 72.175 260.326 72.885 A 13.061 13.061 0 0 0 260.35 73.001 Q 260.47 73.561 260.494 73.801 A 1.037 1.037 0 0 1 260.5 73.901 A 1.097 1.097 0 0 1 260.392 74.404 Q 260.124 74.93 259.2 75.001 Q 255.3 75.001 251.45 73.901 A 9.417 9.417 0 0 1 249.95 73.343 Q 247.6 72.21 247.6 70.101 A 270.88 270.88 0 0 0 249.405 48.125 A 329.732 329.732 0 0 0 249.7 34.001 Q 247.477 34.001 246.136 34.137 A 13.139 13.139 0 0 0 245.6 34.201 L 245.5 34.201 A 1.077 1.077 0 0 1 244.996 34.088 Q 244.575 33.869 244.426 33.225 A 2.62 2.62 0 0 1 244.4 33.101 Z M 180.5 46.701 L 180.6 49.201 A 0.63 0.63 0 0 0 180.657 49.477 Q 180.813 49.801 181.4 49.801 A 15.756 15.756 0 0 0 184.488 49.213 A 12.437 12.437 0 0 0 187 48.151 A 14.11 14.11 0 0 0 188.692 47.043 Q 189.869 46.137 190.6 45.101 A 24.083 24.083 0 0 0 191.859 42.939 Q 193.039 40.623 193.195 38.772 A 6.975 6.975 0 0 0 193.2 38.701 L 193.3 37.501 Q 193.3 32.569 189.713 32.142 A 6.028 6.028 0 0 0 189 32.101 A 5.962 5.962 0 0 0 184.395 34.16 A 8.273 8.273 0 0 0 183.8 34.901 A 15.444 15.444 0 0 0 181.3 40.143 Q 180.702 42.324 180.551 44.912 A 30.786 30.786 0 0 0 180.5 46.701 Z M 276.8 46.701 L 276.9 49.201 A 0.63 0.63 0 0 0 276.957 49.477 Q 277.113 49.801 277.7 49.801 A 15.756 15.756 0 0 0 280.788 49.213 A 12.437 12.437 0 0 0 283.3 48.151 A 14.11 14.11 0 0 0 284.992 47.043 Q 286.169 46.137 286.9 45.101 A 24.083 24.083 0 0 0 288.159 42.939 Q 289.339 40.623 289.495 38.772 A 6.975 6.975 0 0 0 289.5 38.701 L 289.6 37.501 Q 289.6 32.569 286.013 32.142 A 6.028 6.028 0 0 0 285.3 32.101 A 5.962 5.962 0 0 0 280.695 34.16 A 8.273 8.273 0 0 0 280.1 34.901 A 15.444 15.444 0 0 0 277.6 40.143 Q 277.002 42.324 276.851 44.912 A 30.786 30.786 0 0 0 276.8 46.701 Z" vector-effect="non-scaling-stroke"/></g></svg>